<mxfile host="app.diagrams.net" modified="2021-01-07T02:08:33.659Z" agent="5.0 (Windows)" etag="HPTTdLfdD8BpBNIXv4jx" version="14.1.8" type="github">
  <diagram id="LZHEHp-CzdOWnKIqBddL" name="Page-1">
    <mxGraphModel dx="1185" dy="636" grid="1" gridSize="10" guides="1" tooltips="1" connect="1" arrows="1" fold="1" page="1" pageScale="1" pageWidth="827" pageHeight="1169" math="0" shadow="0">
      <root>
        <mxCell id="0" />
        <mxCell id="1" parent="0" />
        <mxCell id="pGRsRrwxIKUyi-qP0Jrf-1" value="" style="rounded=0;whiteSpace=wrap;html=1;" vertex="1" parent="1">
          <mxGeometry width="480" height="270" as="geometry" />
        </mxCell>
        <mxCell id="pGRsRrwxIKUyi-qP0Jrf-2" value="set" style="whiteSpace=wrap;html=1;aspect=fixed;" vertex="1" parent="1">
          <mxGeometry x="4" y="4" width="32" height="32" as="geometry" />
        </mxCell>
        <mxCell id="pGRsRrwxIKUyi-qP0Jrf-4" value="home" style="whiteSpace=wrap;html=1;aspect=fixed;" vertex="1" parent="1">
          <mxGeometry x="444" y="4" width="32" height="32" as="geometry" />
        </mxCell>
        <mxCell id="pGRsRrwxIKUyi-qP0Jrf-5" value="0" style="text;html=1;strokeColor=none;fillColor=none;align=center;verticalAlign=middle;whiteSpace=wrap;rounded=0;" vertex="1" parent="1">
          <mxGeometry x="440" y="36" width="40" height="20" as="geometry" />
        </mxCell>
        <mxCell id="pGRsRrwxIKUyi-qP0Jrf-6" value="&lt;div&gt;photo&lt;/div&gt;&lt;div&gt;save&lt;br&gt;&lt;/div&gt;" style="whiteSpace=wrap;html=1;aspect=fixed;" vertex="1" parent="1">
          <mxGeometry x="224" y="208" width="32" height="32" as="geometry" />
        </mxCell>
        <mxCell id="pGRsRrwxIKUyi-qP0Jrf-7" value="eye" style="whiteSpace=wrap;html=1;aspect=fixed;" vertex="1" parent="1">
          <mxGeometry x="4" y="208" width="32" height="32" as="geometry" />
        </mxCell>
        <mxCell id="pGRsRrwxIKUyi-qP0Jrf-8" value="5" style="text;html=1;strokeColor=none;fillColor=none;align=center;verticalAlign=middle;whiteSpace=wrap;rounded=0;" vertex="1" parent="1">
          <mxGeometry y="36" width="40" height="20" as="geometry" />
        </mxCell>
        <mxCell id="pGRsRrwxIKUyi-qP0Jrf-9" value="6" style="text;html=1;strokeColor=none;fillColor=none;align=center;verticalAlign=middle;whiteSpace=wrap;rounded=0;" vertex="1" parent="1">
          <mxGeometry y="240" width="40" height="20" as="geometry" />
        </mxCell>
      </root>
    </mxGraphModel>
  </diagram>
</mxfile>
